<svg width="81" height="80" viewBox="0 0 81 80" fill="none" xmlns="http://www.w3.org/2000/svg">
<g id="tabler-icon-photo">
<path id="Vector" d="M50.5 26.6667H50.5333M10.5 53.3333L27.1667 36.6667C30.26 33.69 34.0733 33.69 37.1667 36.6667L53.8333 53.3333M47.1667 46.6667L50.5 43.3333C53.5933 40.3567 57.4067 40.3567 60.5 43.3333L70.5 53.3333M10.5 20C10.5 17.3478 11.5536 14.8043 13.4289 12.9289C15.3043 11.0536 17.8478 10 20.5 10H60.5C63.1522 10 65.6957 11.0536 67.5711 12.9289C69.4464 14.8043 70.5 17.3478 70.5 20V60C70.5 62.6522 69.4464 65.1957 67.5711 67.0711C65.6957 68.9464 63.1522 70 60.5 70H20.5C17.8478 70 15.3043 68.9464 13.4289 67.0711C11.5536 65.1957 10.5 62.6522 10.5 60V20Z" stroke="#616876" stroke-width="2" stroke-linecap="round" stroke-linejoin="round"/>
</g>
</svg>
