<?xml version="1.0" encoding="UTF-8"?>
<svg id="_레이어_2" data-name="레이어 2" xmlns="http://www.w3.org/2000/svg" xmlns:xlink="http://www.w3.org/1999/xlink" viewBox="0 0 150 24">
  <defs>
    <style>
      .cls-1 {
        fill: #375ca1;
      }

      .cls-1, .cls-2 {
        stroke-width: 0px;
      }

      .cls-3 {
        clip-path: url(#clippath);
      }

      .cls-2 {
        fill: none;
      }
    </style>
    <clipPath id="clippath">
      <rect class="cls-2" width="150" height="24"/>
    </clipPath>
  </defs>
  <g id="_레이어_1-2" data-name="레이어 1">
    <g class="cls-3">
      <g>
        <g>
          <polygon class="cls-1" points="72.64 15.6 72.68 11.67 69.18 9.92 69.18 22.45 79.29 14.99 75.76 13.22 72.64 15.6"/>
          <polygon class="cls-1" points="76.15 8.4 76.12 12.33 79.61 14.08 79.61 1.55 69.51 9.01 73.04 10.78 76.15 8.4"/>
        </g>
        <g>
          <path class="cls-1" d="M136.91,7.08h3.57l2.9,3.69h.16l2.9-3.69h3.57v11.63h-3.62v-6.69h-.16l-2.68,3.52h-.16l-2.68-3.52h-.16v6.69h-3.62V7.08Z"/>
          <path class="cls-1" d="M25.87,7.21h3.99l4.29,6.3h.12v-6.3h3.57v11.63h-3.99l-4.27-6.28h-.13v6.28h-3.57V7.21Z"/>
          <path class="cls-1" d="M39.76,15.85h6.26c.6,0,.85-.23.85-.63,0-.47-.25-.7-.86-.7h-2.77c-2.13,0-3.7-1.28-3.7-3.67s1.58-3.64,3.7-3.64h6.74v2.99h-5.98c-.45,0-.83.17-.83.66s.38.66.83.66h2.84c2.23,0,3.7,1.26,3.7,3.59s-1.48,3.72-3.7,3.72h-7.08v-2.99Z"/>
          <path class="cls-1" d="M52.18,13.9v-6.69h3.82v6.56c0,1.3.65,1.99,1.66,1.99s1.69-.7,1.69-1.99v-6.56h3.82v6.69c0,3.57-2.29,5.18-5.5,5.18s-5.5-1.61-5.5-5.18Z"/>
          <path class="cls-1" d="M88.02,14.59l-4.45-7.51h4.39l1.88,3.59h.2l1.88-3.59h4.39l-4.45,7.51v4.12h-3.82v-4.12Z"/>
          <path class="cls-1" d="M97.22,13.78v-6.69h3.82v6.56c0,1.3.65,1.99,1.66,1.99s1.69-.7,1.69-1.99v-6.56h3.82v6.69c0,3.57-2.29,5.18-5.5,5.18s-5.5-1.61-5.5-5.18Z"/>
          <polygon class="cls-1" points="18.03 6.62 10.54 18.84 14.88 18.84 18.01 13.51 21.15 18.84 25.43 18.84 18.03 6.62"/>
          <polygon class="cls-1" points="129.07 6.5 121.58 18.71 125.92 18.71 129.04 13.39 132.19 18.71 136.47 18.71 129.07 6.5"/>
          <path class="cls-1" d="M.23,15.85h6.26c.6,0,.85-.23.85-.63,0-.47-.25-.7-.86-.7h-2.77c-2.13,0-3.7-1.28-3.7-3.67s1.58-3.64,3.7-3.64h6.74v2.99h-5.98c-.45,0-.83.17-.83.66s.38.66.83.66h2.84c2.23,0,3.7,1.26,3.7,3.59s-1.48,3.72-3.7,3.72H.23v-2.99Z"/>
          <path class="cls-1" d="M109.96,7.08h7.49c2.52,0,4.14,1.43,4.14,3.82,0,1.63-.73,2.74-1.98,3.27l1.79,4.53h-4.04l-1.46-4.14h-2.41v4.14h-3.54V7.08ZM116.57,12c.7,0,1.18-.25,1.18-.98s-.48-.95-1.18-.95h-3.07v1.93h3.07Z"/>
        </g>
      </g>
    </g>
  </g>
</svg>